<svg width="1920" height="796" viewBox="0 0 1920 796" fill="none" xmlns="http://www.w3.org/2000/svg">
<path d="M1828.32 180.387L1438.51 0L1213.04 161.398L866.313 272.828L639.841 409.243H328.191L-3 496.188V795H1915V180.387H1828.32Z" fill="#F59F74"/>
<path d="M409.775 355.574L217 424.264V796L1983 601.5L1720 472.5L1439.19 375.307V214.152L1336.21 230.421L1219.43 311.127L1307.88 214.152L1423.24 164.088L1439.19 71.5702L1283.59 130.921L1439.19 0L1219.43 88.8934H1188.58L945.689 214.152L764.48 254.558L710.503 311.127L409.775 355.574Z" fill="#05293C"/>
<path d="M1687.97 487.724L1916 581.944V2301H-4.00012V349.166H59.8478L470.299 0L730.252 121.931H766.736L1054.05 293.743L1268.4 349.166L1332.25 426.759L1687.97 487.724Z" fill="#F59F74"/>
<path d="M495.788 89.6067L469.43 0L16.0737 342.614H-63V1309L688.403 1150.48L1439.81 991.952L880.614 900.918H1502.55L404.47 797.328H1901L1102.02 542.911V511.285L1038.76 495.472L975.502 442.763L1154.74 511.285L1102.02 463.847L933.33 384.782L748.824 442.763L669.75 342.614L748.824 358.427L648.664 295.175H690.837L648.664 231.923L880.614 358.427L764.639 216.11L537.961 126.504H622.306L495.788 89.6067Z" fill="#05293C"/>
</svg>
